<svg
viewBox="0 0 29 43"
xmlns="http://www.w3.org/2000/svg"
fill="none"
>
<g fill="#ECA749" opacity=".5" style="mix-blend-mode: luminosity">
    <path
    d="M7.058 0H0v7.058h7.058V0Zm0 7.058H0v7.059h7.058V7.058ZM28.234 0h-7.058v7.058h7.058V0Zm0 7.059h-7.058v7.058h7.058V7.059ZM7.058 28.233H0v7.059h7.058v-7.059Z"
    ></path>
    <path
    d="M7.058 35.291H0v7.059h7.058v-7.06Zm21.176-7.058h-7.058v7.059h7.058v-7.059Z"
    ></path>
    <path
    d="M28.234 35.291h-7.058v7.059h7.058v-7.06ZM14.117 21.175H7.059v7.058h7.058v-7.058Zm7.058-7.058h-7.058v7.058h7.058v-7.058Zm-7.058 0H7.059v7.058h7.058v-7.059Zm7.058 7.058h-7.058v7.058h7.058v-7.058Z"
    ></path>
</g>
</svg>
